<svg width="42" height="42" viewBox="0 0 42 42" fill="none" xmlns="http://www.w3.org/2000/svg">
<circle cx="21" cy="21" r="20.5" fill="black" stroke="white"/>
<g clip-path="url(#clip0_150_26)">
<path d="M28.8215 15.5874C28.8215 14.7907 28.1758 14.1475 27.3822 14.1475C26.5885 14.1475 25.9423 14.7907 25.9423 15.5874C25.9423 16.3811 26.5885 17.0243 27.3822 17.0243C28.1758 17.0243 28.8215 16.3811 28.8215 15.5874Z" fill="white"/>
<path d="M30.7395 26.8274C30.6862 27.9961 30.4907 28.631 30.3285 29.0527C30.1105 29.6118 29.8505 30.0117 29.4288 30.431C29.0118 30.8504 28.6119 31.1098 28.0528 31.3254C27.6311 31.49 26.9938 31.6861 25.8252 31.7418C24.5618 31.7975 24.1874 31.8093 20.9837 31.8093C17.7829 31.8093 17.4055 31.7975 16.1421 31.7418C14.9736 31.6861 14.3392 31.49 13.9174 31.3254C13.3553 31.1098 12.9585 30.8504 12.5392 30.431C12.1168 30.0117 11.8568 29.6118 11.6418 29.0527C11.4795 28.631 11.2811 27.9961 11.2307 26.8274C11.1692 25.564 11.1579 25.1837 11.1579 21.9865C11.1579 18.7827 11.1692 18.4054 11.2307 17.142C11.2811 15.9734 11.4795 15.3391 11.6418 14.9138C11.8568 14.3552 12.1168 13.9578 12.5392 13.5384C12.9585 13.1197 13.3553 12.8596 13.9174 12.6417C14.3392 12.4764 14.9736 12.2833 16.1421 12.2277C17.4055 12.172 17.7829 12.1578 20.9837 12.1578C24.1874 12.1578 24.5618 12.172 25.8252 12.2277C26.9938 12.2833 27.6311 12.4764 28.0528 12.6417C28.6119 12.8596 29.0118 13.1197 29.4288 13.5384C29.8505 13.9578 30.1105 14.3552 30.3285 14.9138C30.4907 15.3391 30.6862 15.9734 30.7395 17.142C30.7981 18.4054 30.8123 18.7827 30.8123 21.9865C30.8123 25.1837 30.7981 25.564 30.7395 26.8274ZM32.8973 17.0437C32.8387 15.7667 32.6372 14.8942 32.3381 14.1343C32.0337 13.3459 31.6256 12.6778 30.9575 12.0097C30.2923 11.3446 29.6242 10.9364 28.8359 10.6285C28.073 10.3323 27.2034 10.1285 25.9258 10.0729C24.6482 10.0112 24.2402 10 20.9837 10C17.7301 10 17.3191 10.0112 16.0415 10.0729C14.7668 10.1285 13.8979 10.3323 13.1315 10.6285C12.3461 10.9364 11.6779 11.3446 11.0128 12.0097C10.3447 12.6778 9.93656 13.3459 9.62915 14.1343C9.33298 14.8942 9.13161 15.7667 9.07 17.0437C9.01434 18.3213 9.00012 18.73 9.00012 21.9865C9.00012 25.2401 9.01434 25.6481 9.07 26.9257C9.13161 28.2004 9.33298 29.0722 9.62915 29.8357C9.93656 30.6211 10.3447 31.2922 11.0128 31.9574C11.6779 32.6225 12.3461 33.0336 13.1315 33.341C13.8979 33.6371 14.7668 33.8385 16.0415 33.8972C17.3191 33.9558 17.7301 33.97 20.9837 33.97C24.2402 33.97 24.6482 33.9558 25.9258 33.8972C27.2034 33.8385 28.073 33.6371 28.8359 33.341C29.6242 33.0336 30.2923 32.6225 30.9575 31.9574C31.6256 31.2922 32.0337 30.6211 32.3381 29.8357C32.6372 29.0722 32.8387 28.2004 32.8973 26.9257C32.9559 25.6481 32.9701 25.2401 32.9701 21.9865C32.9701 18.73 32.9559 18.3213 32.8973 17.0437Z" fill="white"/>
<path d="M20.9836 25.9779C18.7784 25.9779 16.9891 24.1915 16.9891 21.9863C16.9891 19.7776 18.7784 17.9888 20.9836 17.9888C23.1894 17.9888 24.9811 19.7776 24.9811 21.9863C24.9811 24.1915 23.1894 25.9779 20.9836 25.9779ZM20.9836 15.8281C17.5843 15.8281 14.8313 18.587 14.8313 21.9863C14.8313 25.3826 17.5843 28.1386 20.9836 28.1386C24.3828 28.1386 27.1388 25.3826 27.1388 21.9863C27.1388 18.587 24.3828 15.8281 20.9836 15.8281Z" fill="white"/>
</g>
<defs>
<clipPath id="clip0_150_26">
<rect width="24" height="24" fill="white" transform="translate(9 10)"/>
</clipPath>
</defs>
</svg>
