<svg width="42" height="42" viewBox="0 0 42 42" fill="none" xmlns="http://www.w3.org/2000/svg">
<circle cx="21" cy="21" r="20.5" fill="black" stroke="white"/>
<g clip-path="url(#clip0_150_24)">
<path d="M28.0114 27.8341H24.8792V22.9773C24.8792 21.8191 24.8583 20.3282 23.2502 20.3282C21.6188 20.3282 21.3692 21.5901 21.3692 22.8929V27.8337H18.237V17.8462H21.2439V19.2111H21.286C21.5869 18.7016 22.0218 18.2825 22.5442 17.9984C23.0667 17.7143 23.6572 17.5759 24.2528 17.5977C27.4274 17.5977 28.0127 19.6653 28.0127 22.3551L28.0114 27.8341ZM14.7029 16.4809C14.3434 16.481 13.992 16.3755 13.693 16.1778C13.3941 15.9801 13.1611 15.6991 13.0234 15.3702C12.8858 15.0414 12.8497 14.6795 12.9198 14.3304C12.9899 13.9813 13.1629 13.6606 13.4171 13.4088C13.6712 13.1571 13.9951 12.9856 14.3477 12.9161C14.7002 12.8466 15.0657 12.8822 15.3979 13.0183C15.73 13.1545 16.0139 13.3851 16.2137 13.6811C16.4135 13.977 16.5202 14.3249 16.5202 14.6809C16.5203 14.9172 16.4733 15.1513 16.382 15.3696C16.2907 15.588 16.1568 15.7864 15.9881 15.9536C15.8193 16.1207 15.619 16.2533 15.3985 16.3438C15.1779 16.4343 14.9416 16.4809 14.7029 16.4809ZM16.269 27.8341H13.1336V17.8462H16.269V27.8341ZM29.5729 10.0014H11.5596C11.1508 9.99686 10.7568 10.1532 10.4643 10.4361C10.1718 10.719 10.0047 11.1053 9.99976 11.5101V29.4199C10.0046 29.825 10.1716 30.2115 10.464 30.4947C10.7565 30.7779 11.1506 30.9345 11.5596 30.9302H29.5729C29.9828 30.9353 30.3779 30.7791 30.6716 30.4959C30.9652 30.2128 31.1333 29.8258 31.139 29.4199V11.5088C31.1332 11.1032 30.9649 10.7164 30.6713 10.4336C30.3776 10.1507 29.9826 9.99478 29.5729 10.0001" fill="white"/>
</g>
<defs>
<clipPath id="clip0_150_24">
<rect width="22" height="21" fill="white" transform="translate(10 10)"/>
</clipPath>
</defs>
</svg>
