<svg width="118" height="35" viewBox="0 0 118 35" fill="none" xmlns="http://www.w3.org/2000/svg">
<path d="M117.88 21.6259C115.265 21.8708 112.661 22.3284 110.026 22.3184C102.266 22.2881 94.4981 22.0196 86.7367 21.9427C79.1943 21.8678 71.6534 21.9066 64.1156 21.9147C50.2223 21.9298 36.3256 21.9135 22.438 22.0013C16.5241 22.0384 10.633 22.3049 4.72221 22.4404C4.01024 22.4544 3.03678 22.4928 2.61202 22.1702C1.67529 21.4695 1.01466 20.5394 0.244381 19.7064C1.14532 19.2787 2.01814 18.4818 2.96164 18.4764C14.6939 18.3612 26.4252 18.2563 38.1692 18.3487C51.2136 18.4521 64.2701 18.7579 77.3166 18.9698C81.8839 19.0459 86.4456 19.0492 91.0137 19.1821C92.8079 19.2339 94.601 19.6158 96.3965 19.7194C97.3534 19.7772 98.3208 19.4132 99.2695 19.4857C103.992 19.8616 108.706 20.3192 113.421 20.7563C114.895 20.8935 116.358 21.0607 117.83 21.2132C117.849 21.3493 117.861 21.4898 117.88 21.6259Z" fill="#F8A929"/>
<path d="M112.493 13.0525C101.956 14.503 91.3857 13.5794 80.8313 13.5919C71.0004 13.6039 61.17 13.3548 51.3394 13.4286C38.5921 13.53 25.8493 13.8449 13.1025 14.0701C10.4493 14.1181 7.78978 14.2273 5.13776 14.1998C4.36171 14.195 3.37437 14.0514 2.88241 13.5469C2.28212 12.9349 1.85308 11.8872 1.84336 11.0203C1.83756 10.628 3.00983 9.88364 3.66323 9.85514C9.21709 9.61297 14.7747 9.39867 20.3264 9.3693C32.1074 9.30518 43.8842 9.28185 55.66 9.39587C64.2068 9.47762 72.7609 9.74566 81.3006 10.0878C84.4402 10.2139 87.5513 10.9349 90.6918 11.1161C95.5022 11.3878 100.322 11.372 105.131 11.5954C107.608 11.7079 110.072 12.08 112.541 12.3359C112.523 12.5745 112.505 12.8132 112.493 13.0525Z" fill="#F8A929"/>
</svg>
