<svg width="42" height="42" viewBox="0 0 42 42" fill="none" xmlns="http://www.w3.org/2000/svg">
<circle cx="21" cy="21" r="20.5" fill="black" stroke="white"/>
<g clip-path="url(#clip0_150_25)">
<path fill-rule="evenodd" clip-rule="evenodd" d="M20.4598 8C13.0169 8 7 14.0612 7 21.5598C7 27.5538 10.8552 32.6276 16.2034 34.4234C16.8721 34.5584 17.117 34.1316 17.117 33.7726C17.117 33.4582 17.095 32.3807 17.095 31.258C13.3508 32.0664 12.5711 29.6416 12.5711 29.6416C11.9694 28.0701 11.0778 27.6662 11.0778 27.6662C9.85236 26.8355 11.1671 26.8355 11.1671 26.8355C12.5265 26.9253 13.2398 28.2274 13.2398 28.2274C14.4429 30.2926 16.3817 29.7091 17.1616 29.3498C17.2729 28.4743 17.6297 27.8681 18.0086 27.5315C15.0223 27.2171 11.8804 26.0498 11.8804 20.8413C11.8804 19.3596 12.4149 18.1473 13.2618 17.2045C13.1282 16.8678 12.6601 15.4757 13.3957 13.6124C13.3957 13.6124 14.5322 13.2532 17.0947 15.0043C18.1918 14.7075 19.3232 14.5565 20.4598 14.5552C21.5963 14.5552 22.7548 14.7125 23.8246 15.0043C26.3874 13.2532 27.5239 13.6124 27.5239 13.6124C28.2595 15.4757 27.7911 16.8678 27.6575 17.2045C28.5267 18.1473 29.0392 19.3596 29.0392 20.8413C29.0392 26.0498 25.8972 27.1945 22.8887 27.5315C23.3791 27.958 23.8023 28.766 23.8023 30.0458C23.8023 31.8641 23.7802 33.3235 23.7802 33.7723C23.7802 34.1316 24.0254 34.5584 24.6938 34.4236C30.042 32.6273 33.8972 27.5538 33.8972 21.5598C33.9193 14.0612 27.8804 8 20.4598 8Z" fill="white"/>
</g>
<defs>
<clipPath id="clip0_150_25">
<rect width="27" height="26.449" fill="white" transform="translate(7 8)"/>
</clipPath>
</defs>
</svg>
