<svg width="164" height="34" viewBox="0 0 164 34" fill="none" xmlns="http://www.w3.org/2000/svg">
<g clip-path="url(#clip0_21_1024)">
<path d="M108.74 0.0131836H137.231V5.27205H125.929V32.9382H120.277V5.27205H108.74V0.0131836Z" fill="white"/>
<path d="M61.8811 0.0131836V5.27205H39.0429V13.7319H57.4094V18.9908H39.0429V27.6794H61.8811V32.9382H33.3916V5.27205H33.3893V0.0131836H61.8811Z" fill="white"/>
<path d="M76.108 0.0268555H68.7123L95.2023 32.9519H102.62L89.373 16.5007L102.598 0.0519752L95.2023 0.0634047L85.6701 11.902L76.108 0.0268555Z" fill="white"/>
<path d="M83.6973 23.5454L79.9936 18.9404L68.6912 32.977H76.1081L83.6973 23.5454Z" fill="white"/>
<path fill-rule="evenodd" clip-rule="evenodd" d="M33.5898 32.9383L7.06407 -0.000488281H0V32.9245H5.65127V7.03722L26.4903 32.9383H33.5898Z" fill="white"/>
<path d="M138.502 32.7363C138.088 32.7363 137.736 32.593 137.441 32.3062C137.146 32.0195 137.001 31.6723 137.004 31.261C137.001 30.8611 137.146 30.5177 137.441 30.2309C137.736 29.9442 138.088 29.8008 138.502 29.8008C138.9 29.8008 139.248 29.9442 139.543 30.2309C139.842 30.5177 139.991 30.8611 139.995 31.261C139.991 31.5327 139.922 31.7817 139.784 32.0043C139.643 32.2307 139.463 32.4081 139.237 32.5364C139.015 32.6685 138.77 32.7363 138.502 32.7363Z" fill="white"/>
<path d="M148.148 18.8667H150.652V28.5148C150.648 29.4016 150.456 30.16 150.081 30.7977C149.702 31.4353 149.178 31.922 148.504 32.2654C147.834 32.605 147.049 32.7786 146.156 32.7786C145.341 32.7786 144.61 32.6314 143.959 32.3447C143.308 32.0579 142.791 31.6277 142.412 31.0618C142.028 30.4958 141.841 29.7902 141.841 28.945H144.349C144.353 29.3148 144.437 29.6355 144.598 29.9034C144.759 30.1713 144.981 30.375 145.264 30.5184C145.551 30.6618 145.881 30.7335 146.252 30.7335C146.654 30.7335 146.999 30.6505 147.278 30.4806C147.558 30.3146 147.772 30.0656 147.922 29.7336C148.067 29.4053 148.144 28.9978 148.148 28.5148V18.8667Z" fill="white"/>
<path d="M160.956 22.6402C160.895 22.0554 160.626 21.5988 160.159 21.2743C159.688 20.9461 159.079 20.7838 158.333 20.7838C157.808 20.7838 157.357 20.8631 156.981 21.0178C156.606 21.1762 156.315 21.3875 156.116 21.6554C155.917 21.9233 155.817 22.229 155.809 22.5723C155.809 22.8591 155.878 23.1081 156.012 23.3157C156.146 23.5269 156.326 23.7043 156.56 23.8477C156.789 23.9948 157.046 24.1156 157.326 24.2137C157.609 24.3118 157.893 24.3948 158.176 24.4627L159.481 24.7834C160.006 24.9042 160.516 25.0665 161.002 25.274C161.488 25.4777 161.928 25.7381 162.315 26.0512C162.702 26.3644 163.008 26.7417 163.234 27.1832C163.46 27.6247 163.575 28.1416 163.575 28.7378C163.575 29.5414 163.368 30.247 162.95 30.8583C162.533 31.4658 161.932 31.9412 161.143 32.2846C160.358 32.6242 159.409 32.7977 158.291 32.7977C157.211 32.7977 156.269 32.6318 155.476 32.2997C154.68 31.9714 154.059 31.4884 153.611 30.8545C153.163 30.2206 152.922 29.4471 152.888 28.5378H155.369C155.404 29.0132 155.557 29.4094 155.817 29.7301C156.081 30.0471 156.426 30.281 156.847 30.4395C157.272 30.5942 157.747 30.6734 158.272 30.6734C158.819 30.6734 159.302 30.5904 159.719 30.4281C160.132 30.2659 160.458 30.0395 160.692 29.7452C160.929 29.4547 161.048 29.1113 161.052 28.7189C161.048 28.3605 160.94 28.0623 160.733 27.8284C160.523 27.5945 160.232 27.3983 159.86 27.2398C159.486 27.0813 159.049 26.9379 158.551 26.8134L156.966 26.4135C155.821 26.1229 154.913 25.6815 154.251 25.0891C153.585 24.4967 153.255 23.7119 153.255 22.727C153.255 21.9196 153.477 21.2102 153.926 20.6027C154.369 19.9953 154.978 19.5236 155.748 19.1878C156.522 18.8482 157.395 18.6821 158.367 18.6821C159.355 18.6821 160.22 18.8482 160.967 19.1878C161.714 19.5236 162.3 19.9915 162.725 20.5876C163.15 21.1838 163.372 21.8667 163.383 22.6402H160.956Z" fill="white"/>
</g>
<defs>
<clipPath id="clip0_21_1024">
<rect width="163.575" height="33.2132" fill="white"/>
</clipPath>
</defs>
</svg>
