<svg width="93" height="83" viewBox="0 0 93 83" fill="none" xmlns="http://www.w3.org/2000/svg">
<path d="M46.2823 32.5845C41.4029 32.5845 37.4474 36.54 37.4474 41.4194C37.4474 46.2988 41.4029 50.2544 46.2823 50.2544C51.1618 50.2544 55.1173 46.2988 55.1173 41.4194C55.1173 36.54 51.1618 32.5845 46.2823 32.5845Z" fill="white"/>
<path d="M92.2337 41.4991C92.2337 34.563 85.8106 28.4796 75.5838 24.4761C75.7204 23.5745 75.8441 22.6827 75.9319 21.8071C76.9406 11.8407 74.5393 4.64745 69.1737 1.54882C63.1703 -1.91762 54.6908 0.598394 46.1169 7.45966C37.543 0.598394 29.0634 -1.91762 23.0601 1.54882C17.6945 4.64745 15.2931 11.8407 16.3018 21.8071C16.3897 22.6827 16.5101 23.5778 16.65 24.4826C15.7975 24.8081 14.9612 25.1531 14.1575 25.5144C5.0272 29.6188 0 35.3018 0 41.4991C0 48.4352 6.42311 54.5186 16.65 58.5221C16.5101 59.4237 16.3897 60.3155 16.3018 61.1911C15.2931 71.1575 17.6945 78.3507 23.0601 81.4494C24.9048 82.4954 26.9952 83.0303 29.1155 82.9987C34.198 82.9987 40.133 80.3232 46.1169 75.5385C52.0975 80.3232 58.0357 82.9987 63.1248 82.9987C65.245 83.0298 67.3353 82.495 69.1802 81.4494C74.5458 78.3507 76.9471 71.1575 75.9384 61.1911C75.8506 60.3155 75.7269 59.4237 75.5903 58.5221C85.8171 54.5251 92.2402 48.432 92.2402 41.4991M63.0857 4.39357C64.449 4.36068 65.7966 4.69094 66.9903 5.3505C70.716 7.50197 72.3885 13.338 71.575 21.3612C71.5197 21.908 71.4546 22.4614 71.3765 23.0179C67.1241 21.7369 62.7697 20.8233 58.3611 20.2871C55.6886 16.7336 52.7168 13.4156 49.4781 10.3695C54.5639 6.43763 59.3373 4.39357 63.0825 4.39357M61.3351 50.2872C59.6895 53.1444 57.8975 55.9148 55.9663 58.5872C52.6929 58.9235 49.4043 59.0908 46.1136 59.0884C42.824 59.0907 39.5365 58.9234 36.2642 58.5872C34.3382 55.9147 32.5516 53.1443 30.9116 50.2872C29.266 47.438 27.7705 44.5046 26.4311 41.4991C27.7705 38.4936 29.266 35.5602 30.9116 32.7109C32.549 29.8653 34.3301 27.1049 36.2479 24.4403C39.5263 24.0956 42.8205 23.924 46.1169 23.926C49.4064 23.9241 52.6939 24.0914 55.9663 24.4273C57.8907 27.0959 59.6783 29.8607 61.3221 32.7109C62.9664 35.5609 64.462 38.4942 65.8027 41.4991C64.462 44.5039 62.9664 47.4373 61.3221 50.2872M68.0413 47.0324C69.074 49.8492 69.9218 52.7305 70.5793 55.6578C67.726 56.5476 64.8173 57.2489 61.872 57.7572C62.9914 56.069 64.076 54.3124 65.1259 52.4875C66.1639 50.6843 67.1368 48.8649 68.0544 47.0454M39.9378 63.2839C41.9617 63.4076 44.0279 63.4792 46.1201 63.4792C48.2123 63.4792 50.2916 63.4076 52.3187 63.2839C50.3967 65.5868 48.326 67.7613 46.1201 69.7937C43.9189 67.7617 41.8537 65.587 39.9378 63.2839ZM30.365 57.7507C27.4187 57.2447 24.509 56.5455 21.6544 55.6578C22.3093 52.7351 23.1538 49.8582 24.1826 47.0454C25.0872 48.8649 26.0569 50.6843 27.1111 52.4875C28.1654 54.2907 29.2554 56.0679 30.365 57.7572M24.1826 35.9495C23.1575 33.1471 22.3151 30.2812 21.6609 27.3697C24.5084 26.481 27.4104 25.7775 30.3487 25.2638C29.2359 26.9466 28.1458 28.6912 27.0948 30.5106C26.0438 32.3301 25.084 34.1268 24.1664 35.9495M52.2992 19.711C50.2753 19.5873 48.2091 19.5157 46.1006 19.5157C44.0095 19.5157 41.9487 19.5808 39.9183 19.711C41.8342 17.4079 43.8994 15.2333 46.1006 13.2013C48.3074 15.2327 50.378 17.4074 52.2992 19.711ZM65.1194 30.5106C64.0651 28.6836 62.9751 26.926 61.8493 25.2378C64.8023 25.7461 67.7186 26.4485 70.5793 27.3404C69.923 30.2627 69.0785 33.1395 68.0511 35.9528C67.1465 34.1333 66.1736 32.3138 65.1226 30.5139M20.6717 21.3645C19.8485 13.3445 21.5308 7.50523 25.2532 5.35376C26.4473 4.69521 27.7946 4.36503 29.1578 4.39683C32.903 4.39683 37.6764 6.44089 42.7621 10.3728C39.5213 13.421 36.5473 16.7412 33.8726 20.2969C29.4653 20.8356 25.1113 21.7459 20.8572 23.0179C20.7824 22.4614 20.714 21.9113 20.662 21.3645M15.9602 29.5212C16.4612 29.3042 16.9721 29.0872 17.4927 28.8702C18.5162 33.1896 19.9041 37.4143 21.6414 41.4991C19.9008 45.5919 18.5118 49.8255 17.4895 54.154C9.19864 50.7527 4.3927 46.0396 4.3927 41.4991C4.3927 37.1961 8.62271 32.8314 15.9602 29.5212ZM25.2532 77.6444C21.5308 75.4929 19.8485 69.6537 20.6717 61.6337C20.7238 61.0869 20.7921 60.5368 20.867 59.977C25.1194 61.2576 29.4739 62.1713 33.8824 62.7078C36.5557 66.2626 39.5275 69.5827 42.7654 72.6319C35.6753 78.1099 29.1968 79.9163 25.2629 77.6444M71.5718 61.6337C72.3852 69.657 70.7127 75.4929 66.9871 77.6444C63.0564 79.9228 56.5748 78.1099 49.4879 72.6319C52.7247 69.5826 55.6954 66.2626 58.3676 62.7078C62.7762 62.1716 67.1306 61.258 71.383 59.977C71.4611 60.5368 71.5262 61.0869 71.5815 61.6337M74.7638 54.1475C73.7386 49.8215 72.3485 45.5902 70.6086 41.4991C72.3478 37.4058 73.7367 33.1723 74.7605 28.8442C83.0351 32.2455 87.854 36.9585 87.854 41.4991C87.854 46.0396 83.0481 50.7527 74.7573 54.154" fill="white"/>
</svg>
