<svg width="211" height="26" viewBox="0 0 211 26" fill="none" xmlns="http://www.w3.org/2000/svg">
<g clip-path="url(#clip0_21_1110)">
<path fill-rule="evenodd" clip-rule="evenodd" d="M21.7654 0C15.9676 0 12.3559 2.88537 10.8985 8.6561C13.0846 5.77073 15.6191 4.69268 18.5339 5.39024C20.1813 5.80244 21.3852 7.00732 22.6842 8.30732C24.8069 10.4951 27.278 13 32.664 13C38.4617 13 42.1051 10.1146 43.5625 4.3439C41.3764 7.22927 38.8419 8.30732 35.9589 7.57805C34.3114 7.16585 33.1075 5.96098 31.8085 4.66098C29.6542 2.50488 27.183 0 21.7654 0ZM10.8985 13C5.06909 13 1.45736 15.8854 0 21.6561C2.18605 18.7707 4.72059 17.6927 7.63532 18.3902C9.28277 18.8024 10.4867 20.0073 11.7856 21.3073C13.9083 23.4951 16.3795 26 21.7654 26C27.5632 26 31.2066 23.1146 32.664 17.3439C30.4779 20.2293 27.9434 21.3073 25.0286 20.578C23.3812 20.1659 22.1773 18.961 20.8783 17.661C18.7556 15.5049 16.2845 13 10.8985 13Z" fill="#38BDF8"/>
<path fill-rule="evenodd" clip-rule="evenodd" d="M65.328 10.9393H61.5262V18.2637C61.5262 20.2295 62.8251 20.1978 65.328 20.071V23.0198C60.2272 23.6222 58.1996 22.2271 58.1996 18.2637V10.9393H55.3799V7.76855H58.1996V3.6783L61.5262 2.69538V7.76855H65.328V10.9393ZM79.8382 7.80025H83.1332V23.0515H79.8382V20.8637C78.666 22.4807 76.8602 23.4637 74.484 23.4637C70.302 23.4637 66.8487 19.9442 66.8487 15.4417C66.8487 10.9076 70.302 7.41977 74.484 7.41977C76.8602 7.41977 78.6977 8.40269 79.8382 9.98806V7.80025ZM74.9909 20.2929C77.7472 20.2929 79.8382 18.232 79.8382 15.41C79.8382 12.5564 77.7472 10.5271 74.9909 10.5271C72.2346 10.5271 70.1436 12.5881 70.1436 15.41C70.1436 18.232 72.2346 20.2929 74.9909 20.2929ZM88.6458 5.48562C87.4736 5.48562 86.5231 4.50269 86.5231 3.39294C86.5231 2.21977 87.4736 1.30025 88.6458 1.30025C89.818 1.30025 90.7685 2.25147 90.7685 3.39294C90.7685 4.5344 89.818 5.48562 88.6458 5.48562ZM86.9983 23.0198V7.80025H90.2932V23.0515H86.9983V23.0198ZM94.1267 23.0198V0.76123H97.4216V23.0198H94.1267ZM118.934 7.80025H122.419L117.603 23.0515H114.371L111.172 12.7783L107.94 23.0515H104.677L99.8612 7.80025H103.346L106.324 18.3271L109.556 7.80025H112.724L115.924 18.3271L118.934 7.80025ZM126.537 5.48562C125.365 5.48562 124.415 4.50269 124.415 3.39294C124.415 2.21977 125.365 1.30025 126.537 1.30025C127.709 1.30025 128.66 2.25147 128.66 3.39294C128.66 4.5344 127.709 5.48562 126.537 5.48562ZM124.89 23.0198V7.80025H128.185V23.0515H124.89V23.0198ZM140.097 7.38806C143.519 7.38806 145.99 9.70269 145.99 13.6661V23.0198H142.695V14.0149C142.695 11.7003 141.364 10.4637 139.273 10.4637C137.087 10.4637 135.376 11.732 135.376 14.871V23.0515H132.05V7.80025H135.376V9.7344C136.327 8.14904 138.006 7.38806 140.097 7.38806ZM161.672 1.68074H164.999V23.0198H161.672V20.832C160.5 22.449 158.694 23.432 156.318 23.432C152.168 23.432 148.683 19.9124 148.683 15.41C148.683 10.8759 152.136 7.38806 156.318 7.38806C158.694 7.38806 160.532 8.37099 161.672 9.95635V1.68074ZM156.825 20.2929C159.581 20.2929 161.672 18.232 161.672 15.41C161.672 12.5564 159.581 10.5271 156.825 10.5271C154.069 10.5271 151.978 12.5881 151.978 15.41C151.978 18.232 154.069 20.2929 156.825 20.2929ZM176.056 23.432C171.43 23.432 167.945 19.9124 167.945 15.41C167.945 10.8759 171.399 7.38806 176.056 7.38806C179.066 7.38806 181.664 8.94172 182.899 11.3198L180.048 12.9685C179.383 11.5417 177.862 10.6222 176.024 10.6222C173.331 10.6222 171.272 12.6515 171.272 15.41C171.272 18.1685 173.331 20.1978 176.024 20.1978C177.862 20.1978 179.351 19.2466 180.111 17.8515L182.963 19.4685C181.664 21.8783 179.066 23.432 176.056 23.432ZM188.412 11.9856C188.412 14.7759 196.649 13.0954 196.649 18.7393C196.649 21.7832 193.988 23.432 190.661 23.432C187.588 23.432 185.402 22.0685 184.42 19.849L187.271 18.2003C187.747 19.5637 188.982 20.3881 190.661 20.3881C192.119 20.3881 193.259 19.9124 193.259 18.6759C193.259 15.949 185.022 17.5027 185.022 12.0173C185.022 9.16367 187.493 7.35635 190.63 7.35635C193.132 7.35635 195.223 8.52952 196.301 10.5271L193.513 12.0807C192.974 10.8759 191.897 10.3368 190.63 10.3368C189.457 10.3685 188.412 10.9076 188.412 11.9856ZM202.542 11.9856C202.542 14.7759 210.779 13.0954 210.779 18.7393C210.779 21.7832 208.118 23.432 204.791 23.432C201.718 23.432 199.532 22.0685 198.55 19.849L201.401 18.2003C201.877 19.5637 203.112 20.3881 204.791 20.3881C206.249 20.3881 207.389 19.9124 207.389 18.6759C207.389 15.949 199.152 17.5027 199.152 12.0173C199.152 9.16367 201.623 7.35635 204.76 7.35635C207.262 7.35635 209.354 8.52952 210.431 10.5271L207.643 12.0807C207.104 10.8759 206.027 10.3368 204.76 10.3368C203.587 10.3685 202.542 10.9076 202.542 11.9856Z" fill="white"/>
</g>
<defs>
<clipPath id="clip0_21_1110">
<rect width="210.811" height="26" fill="white"/>
</clipPath>
</defs>
</svg>
