<svg width="407" height="8" viewBox="0 0 407 8" fill="none" xmlns="http://www.w3.org/2000/svg">
<path d="M406.264 5.65237C368.14 7.58423 329.107 6.39746 290.443 6.44046C254.429 6.48084 218.33 6.17827 182.338 6.29993C135.67 6.46514 89.0881 6.91077 42.4623 7.23853C32.7576 7.30826 23.0501 7.45838 13.3247 7.42897C10.4799 7.42457 6.81491 7.23848 4.84489 6.57697C2.44227 5.77461 0.522307 4.39936 0.198709 3.26068C0.0471156 2.74538 4.0947 1.76466 6.47909 1.72559C26.7464 1.39353 47.0368 1.09808 67.367 1.04556C110.508 0.931768 153.647 0.871563 196.828 0.991775C228.168 1.0777 259.597 1.40832 290.998 1.83631C302.542 1.99406 314.18 2.93334 325.746 3.16342C343.46 3.50831 361.115 3.47541 378.807 3.75689C387.92 3.89835 397.07 4.38101 406.201 4.71093C406.214 5.02445 406.227 5.33797 406.264 5.65237Z" fill="black"/>
</svg>
