<svg width="507" height="93" viewBox="0 0 507 93" fill="none" xmlns="http://www.w3.org/2000/svg">
<path d="M198.939 80.4333C201.932 79.9863 204.893 79.2626 207.902 79.1348C234.505 78.0705 261.188 77.5703 287.711 75.9845C308.488 74.7392 329.137 72.4084 349.753 70.1733C373.411 67.6084 397.213 65.3307 420.486 61.6376C441.711 58.2637 463.176 54.8047 482.496 47.4929C484.881 46.5882 487.234 45.6516 489.523 44.6512C501.976 39.1806 498.855 32.4435 489.763 27.4093C478.03 20.917 463.56 18.2669 449.01 15.9467C421.351 11.5298 393.227 9.2522 364.895 7.85795C316.731 5.49518 268.584 5.18653 220.34 6.82557C178.178 8.25175 136.449 11.7427 95.0716 17.0962C73.5427 19.8847 52.2059 23.4288 32.4697 29.9956C25.923 32.1775 19.8085 35.2214 14.3502 38.4995C7.5954 42.5651 8.0756 47.7696 14.3342 52.261C24.7865 59.7644 38.6162 63.6066 52.2379 67.5658C77.5924 74.9308 104.115 79.965 131.135 83.7114C146.613 85.8506 162.348 87.1491 177.938 88.8946C181.732 89.3203 185.461 89.9908 189.511 90.5975C170.879 95.2698 152.599 92.0236 134.496 90.0866C108.981 87.3513 83.995 83.0515 60.0011 76.5273C41.8336 71.5889 24.0022 66.1609 9.16405 57.3803C-5.16188 48.8978 -1.40032 37.9354 11.549 31.1557C30.4209 21.2683 53.1823 17.0004 76.2798 13.6691C88.733 11.8704 101.202 10.1037 113.751 8.64555C126.269 7.19809 138.866 6.08056 151.463 5.01625C154.536 4.75017 157.754 5.23975 159.498 5.31425C163.356 4.77145 166.045 4.39895 168.718 4.00516C172.784 3.41978 177.362 3.473 181.043 3.44107C186.486 3.38786 192.008 0.652579 197.994 3.14307C200.251 4.07966 204.669 2.57897 208.126 2.3874C216.962 1.88717 225.814 1.46144 234.665 1.06765C244.157 0.652566 253.665 0.109768 263.173 0.00333676C268.888 -0.0605219 274.602 0.812219 280.332 0.908007C284.638 0.982509 288.96 0.258786 293.266 0.301359C300.293 0.365217 307.304 0.886719 314.33 0.971863C318.812 1.02508 323.646 -0.177587 327.728 0.578074C338.436 2.54705 349.225 1.44017 359.933 1.89782C373.011 2.45127 386.104 3.21757 399.102 4.35638C428.218 6.90008 457.494 9.25221 484.401 17.8731C489.603 19.5441 494.645 21.8536 498.727 24.557C511.788 33.2311 508.987 44.8108 493.125 51.1009C471.804 59.5515 448.466 64.309 424.424 67.4913C393.579 71.5782 362.51 74.9415 331.602 78.8368C302.662 82.4874 273.482 84.2435 244.077 84.1158C230.504 84.052 216.946 83.0089 203.372 82.3384C201.916 82.2639 200.523 81.7211 199.099 81.3912C199.051 81.0719 199.003 80.7526 198.955 80.4333H198.939Z" fill="#F8A929"/>
</svg>
